<svg width="30" height="30" viewBox="0 0 30 30" fill="none" xmlns="http://www.w3.org/2000/svg">
<path d="M27.9959 15.1905C28.0014 15.1271 28.0014 15.0634 27.9959 15C28.0014 14.9367 28.0014 14.873 27.9959 14.8096C28.001 14.7663 28.001 14.7226 27.9959 14.6793C27.9288 14.0308 27.6339 13.4271 27.1636 12.9753L17.0858 3.15268C16.6423 2.72103 16.0738 2.44041 15.4613 2.35085C15.433 2.25022 15.3726 2.16154 15.2894 2.09825C15.2062 2.03495 15.1046 2.00045 15 2C14.8954 2.00045 14.7938 2.03495 14.7106 2.09825C14.6274 2.16154 14.567 2.25022 14.5387 2.35085C13.9262 2.44041 13.3577 2.72103 12.9142 3.15268L2.8364 12.9753C2.36609 13.4271 2.07118 14.0308 2.00408 14.6793C1.99902 14.7226 1.99902 14.7663 2.00408 14.8096C1.99864 14.873 1.99864 14.9367 2.00408 15C1.99864 15.0634 1.99864 15.1271 2.00408 15.1905C1.99902 15.2338 1.99902 15.2775 2.00408 15.3208C2.07118 15.9693 2.36609 16.573 2.8364 17.0247L12.9142 26.8474C13.3577 27.279 13.9262 27.5596 14.5387 27.6492C14.567 27.7498 14.6274 27.8385 14.7106 27.9018C14.7938 27.9651 14.8954 27.9996 15 28C15.1046 27.9996 15.2062 27.9651 15.2894 27.9018C15.3726 27.8385 15.433 27.7498 15.4613 27.6492C16.0738 27.5596 16.6423 27.279 17.0858 26.8474L27.1636 17.0247C27.6339 16.573 27.9288 15.9693 27.9959 15.3208C28.001 15.2775 28.001 15.2338 27.9959 15.1905ZM26.4717 13.6369C26.5792 13.7457 26.6735 13.8668 26.7525 13.9977L15.4613 10.3593V3.34313C15.8109 3.43053 16.1321 3.6066 16.3939 3.85432L26.4717 13.6369ZM15.4412 11.3717L26.6923 15L15.4412 18.6284V11.3717ZM14.4384 18.6284L3.18735 15L14.4384 11.3717V18.6284ZM13.5059 3.81418C13.7676 3.56647 14.0888 3.39046 14.4384 3.30306V10.3192L3.19738 13.9977C3.27638 13.8668 3.37063 13.7457 3.47816 13.6369L13.5059 3.81418ZM3.47816 16.3632C3.37063 16.2544 3.27638 16.1333 3.19738 16.0023L14.4886 19.6407V26.6569C14.1389 26.5695 13.8177 26.3935 13.556 26.1457L3.47816 16.3632ZM16.3838 26.1858C16.1221 26.4335 15.8009 26.6096 15.4512 26.697V19.6808L26.7425 16.0424C26.6635 16.1734 26.5692 16.2945 26.4617 16.4032L16.3838 26.1858Z" fill="currentColor"/>
</svg>
