<svg width="30" height="30" viewBox="0 0 30 30" fill="none" xmlns="http://www.w3.org/2000/svg">
<path d="M15 2C11.5522 2 8.24559 3.36964 5.80762 5.80762C3.36964 8.24559 2 11.5522 2 15C2 18.4478 3.36964 21.7544 5.80762 24.1924C8.24559 26.6304 11.5522 28 15 28C18.4478 28 21.7544 26.6304 24.1924 24.1924C26.6304 21.7544 28 18.4478 28 15C28 11.5522 26.6304 8.24559 24.1924 5.80762C21.7544 3.36964 18.4478 2 15 2ZM15 27C11.8215 26.9868 8.77686 25.7184 6.52927 23.4708C4.28168 21.2232 3.01316 18.1785 3 15C3.01316 11.8215 4.28168 8.77683 6.52927 6.52924C8.77686 4.28165 11.8215 3.01316 15 3C18.1785 3.01316 21.2231 4.28165 23.4707 6.52924C25.7183 8.77683 26.9868 11.8215 27 15C26.9974 18.1855 25.7335 21.2403 23.4848 23.4965C21.2361 25.7527 18.1855 27.0268 15 27.04V27Z" fill="currentColor"/>
<path d="M25.1001 14.81C25.1017 14.7462 25.0899 14.6827 25.0655 14.6237C25.0412 14.5646 25.0048 14.5113 24.9587 14.4671C24.9126 14.4228 24.8578 14.3887 24.7978 14.3668C24.7378 14.345 24.6739 14.3359 24.6101 14.34C24.5467 14.34 24.4839 14.3527 24.4255 14.3776C24.3672 14.4024 24.3144 14.4389 24.2705 14.4847C24.2266 14.5305 24.1924 14.5846 24.17 14.644C24.1476 14.7033 24.1374 14.7666 24.1401 14.83V15C24.1362 16.2051 23.8948 17.3976 23.4297 18.5093C22.9646 19.621 22.2849 20.6301 21.4296 21.479C20.5742 22.3278 19.5599 22.9998 18.4447 23.4564C17.3295 23.913 16.1352 24.1453 14.9301 24.14H14.8201C14.5401 24.14 14.3801 24.34 14.3701 24.6C14.3747 24.7304 14.4272 24.8546 14.5176 24.9487C14.608 25.0428 14.73 25.1002 14.8601 25.11H15.0001C17.6815 25.11 20.253 24.0449 22.149 22.1489C24.045 20.2529 25.1101 17.6814 25.1101 15L25.1001 14.81Z" fill="currentColor"/>
</svg>
