<svg width="100" height="100" viewBox="0 0 100 100" fill="none" xmlns="http://www.w3.org/2000/svg">
<path d="M25.0003 91.6667C22.7087 91.6667 20.7462 90.85 19.1128 89.2167C17.4795 87.5833 16.6642 85.6222 16.667 83.3333V16.6667C16.667 14.375 17.4837 12.4125 19.117 10.7792C20.7503 9.14583 22.7114 8.33056 25.0003 8.33334H54.8962C56.0073 8.33334 57.067 8.54167 58.0753 8.95834C59.0837 9.375 59.9684 9.96528 60.7295 10.7292L80.9378 30.9375C81.7017 31.7014 82.292 32.5875 82.7087 33.5958C83.1253 34.6042 83.3337 35.6625 83.3337 36.7708V58.3333H75.0003V37.5H58.3337C57.1531 37.5 56.1628 37.1 55.3628 36.3C54.5628 35.5 54.1642 34.5111 54.167 33.3333V16.6667H25.0003V83.3333H62.5003V91.6667H25.0003ZM88.4378 90.2083L79.167 80.9375V86.0417C79.167 87.2222 78.767 88.2125 77.967 89.0125C77.167 89.8125 76.1781 90.2111 75.0003 90.2083C73.8198 90.2083 72.8295 89.8097 72.0295 89.0125C71.2295 88.2153 70.8309 87.225 70.8337 86.0417V70.8333C70.8337 69.6528 71.2337 68.6625 72.0337 67.8625C72.8337 67.0625 73.8226 66.6639 75.0003 66.6667H90.2087C91.3892 66.6667 92.3795 67.0667 93.1795 67.8667C93.9795 68.6667 94.3781 69.6556 94.3753 70.8333C94.3753 72.0139 93.9767 73.0042 93.1795 73.8042C92.3823 74.6042 91.392 75.0028 90.2087 75H85.0003L94.3753 84.375C95.1392 85.1389 95.5212 86.0945 95.5212 87.2417C95.5212 88.3889 95.1392 89.3778 94.3753 90.2083C93.542 91.0417 92.5531 91.4583 91.4087 91.4583C90.2642 91.4583 89.2739 91.0417 88.4378 90.2083Z" fill="currentColor"/>
</svg>
