<svg width="30" height="30" viewBox="0 0 30 30" fill="none" xmlns="http://www.w3.org/2000/svg">
<path d="M10.4426 7.9425C10.5008 7.88439 10.5468 7.8154 10.5783 7.73948C10.6097 7.66355 10.6259 7.58218 10.6259 7.5C10.6259 7.41782 10.6097 7.33644 10.5783 7.26052C10.5468 7.18459 10.5008 7.11561 10.4426 7.0575C10.3845 6.99939 10.3155 6.95329 10.2396 6.92184C10.1637 6.89039 10.0823 6.87421 10.0001 6.87421C9.91796 6.87421 9.83659 6.89039 9.76066 6.92184C9.68474 6.95329 9.61575 6.99939 9.55764 7.0575L10.4426 7.9425ZM6.25014 11.25L5.80764 10.8075C5.74944 10.8656 5.70326 10.9345 5.67175 11.0105C5.64024 11.0864 5.62402 11.1678 5.62402 11.25C5.62402 11.3322 5.64024 11.4136 5.67175 11.4895C5.70326 11.5655 5.74944 11.6344 5.80764 11.6925L6.25014 11.25ZM9.55764 15.4425C9.675 15.5599 9.83417 15.6258 10.0001 15.6258C10.1661 15.6258 10.3253 15.5599 10.4426 15.4425C10.56 15.3251 10.6259 15.166 10.6259 15C10.6259 14.834 10.56 14.6749 10.4426 14.5575L9.55764 15.4425ZM6.25014 20.625C6.08438 20.625 5.92541 20.6908 5.8082 20.8081C5.69099 20.9253 5.62514 21.0842 5.62514 21.25C5.62514 21.4158 5.69099 21.5747 5.8082 21.6919C5.92541 21.8091 6.08438 21.875 6.25014 21.875V20.625ZM9.55764 7.0575L5.80764 10.8075L6.69264 11.6925L10.4426 7.9425L9.55764 7.0575ZM5.80764 11.6925L9.55764 15.4425L10.4426 14.5575L6.69264 10.8075L5.80764 11.6925ZM6.25014 11.875H20.0001V10.625H6.25014V11.875ZM24.3751 16.25C24.3751 16.8245 24.262 17.3934 24.0421 17.9242C23.8222 18.455 23.5 18.9373 23.0937 19.3436C22.6875 19.7498 22.2052 20.0721 21.6744 20.292C21.1436 20.5118 20.5747 20.625 20.0001 20.625V21.875C21.492 21.875 22.9227 21.2824 23.9776 20.2275C25.0325 19.1726 25.6251 17.7418 25.6251 16.25H24.3751ZM20.0001 11.875C21.1605 11.875 22.2733 12.3359 23.0937 13.1564C23.9142 13.9769 24.3751 15.0897 24.3751 16.25H25.6251C25.6251 14.7582 25.0325 13.3274 23.9776 12.2725C22.9227 11.2176 21.492 10.625 20.0001 10.625V11.875ZM6.25014 21.875H20.0001V20.625H6.25014V21.875Z" fill="currentColor"/>
</svg>
