<svg width="30" height="30" viewBox="0 0 30 30" fill="none" xmlns="http://www.w3.org/2000/svg">
<path d="M15 28C11.5522 28 8.24559 26.6304 5.80762 24.1924C3.36964 21.7544 2 18.4478 2 15C2 11.5522 3.36964 8.24559 5.80762 5.80762C8.24559 3.36964 11.5522 2 15 2C18.4478 2 21.7544 3.36964 24.1924 5.80762C26.6304 8.24559 28 11.5522 28 15C28 18.4478 26.6304 21.7544 24.1924 24.1924C21.7544 26.6304 18.4478 28 15 28ZM15 3C11.8215 3.01316 8.77686 4.28165 6.52927 6.52924C4.28168 8.77683 3.01316 11.8215 3 15C3.01316 18.1785 4.28168 21.2232 6.52927 23.4708C8.77686 25.7184 11.8215 26.9868 15 27C18.1785 26.9868 21.2231 25.7184 23.4707 23.4708C25.7183 21.2232 26.9868 18.1785 27 15C26.9974 11.8145 25.7335 8.7597 23.4848 6.50348C21.2361 4.24726 18.1855 2.97324 15 2.96002V3Z" fill="currentColor"/>
</svg>
