<svg width="30" height="30" viewBox="0 0 30 30" fill="none" xmlns="http://www.w3.org/2000/svg">
<path d="M25.9925 19.628C26.0025 19.5718 26.0025 19.5142 25.9925 19.458C25.9925 19.458 25.9925 19.458 25.9925 19.398C25.9925 19.398 25.9925 19.398 25.9925 19.338L15.412 2.21392C15.3657 2.14789 15.304 2.09395 15.2323 2.05672C15.1606 2.01948 15.0809 2 15 2C14.9191 2 14.8394 2.01948 14.7677 2.05672C14.696 2.09395 14.6344 2.14789 14.5881 2.21392L4.00746 19.338V19.398C4.00746 19.398 4.00746 19.398 4.00746 19.458C3.99751 19.5142 3.99751 19.5718 4.00746 19.628C4.00279 19.6612 4.00279 19.6948 4.00746 19.728C4.00746 19.728 4.00746 19.7281 4.00746 19.7781C4.03215 19.8159 4.06269 19.8497 4.09792 19.8781C4.09693 19.8981 4.09693 19.9181 4.09792 19.9381L14.6986 27.91C14.7845 27.9682 14.886 27.9995 14.9899 28C15.0939 27.9995 15.1954 27.9682 15.2814 27.91L25.8619 19.9781C25.8619 19.9781 25.8619 19.9281 25.8619 19.9181L25.9524 19.8181C25.9485 19.8016 25.9485 19.7845 25.9524 19.7681C25.9752 19.7246 25.9889 19.6769 25.9925 19.628ZM14.9397 3.34413L24.6662 19.0679H5.2233L14.9397 3.34413ZM14.9397 26.8797L5.79604 20.0281H24.0834L14.9397 26.8797Z" fill="currentColor"/>
</svg>
