<svg width="30" height="30" viewBox="0 0 30 30" fill="none" xmlns="http://www.w3.org/2000/svg">
<path d="M20.4425 7.0575C20.3251 6.94014 20.166 6.87421 20 6.87421C19.834 6.87421 19.6749 6.94014 19.5575 7.0575C19.4401 7.17485 19.3742 7.33403 19.3742 7.5C19.3742 7.66597 19.4401 7.82514 19.5575 7.9425L20.4425 7.0575ZM23.75 11.25L24.1925 11.6925C24.2507 11.6344 24.2969 11.5655 24.3284 11.4895C24.3599 11.4136 24.3761 11.3322 24.3761 11.25C24.3761 11.1678 24.3599 11.0864 24.3284 11.0105C24.2969 10.9345 24.2507 10.8656 24.1925 10.8075L23.75 11.25ZM19.5575 14.5575C19.4401 14.6749 19.3742 14.834 19.3742 15C19.3742 15.166 19.4401 15.3251 19.5575 15.4425C19.6749 15.5599 19.834 15.6258 20 15.6258C20.166 15.6258 20.3251 15.5599 20.4425 15.4425L19.5575 14.5575ZM23.75 21.875C23.9158 21.875 24.0747 21.8091 24.1919 21.6919C24.3092 21.5747 24.375 21.4158 24.375 21.25C24.375 21.0842 24.3092 20.9253 24.1919 20.8081C24.0747 20.6908 23.9158 20.625 23.75 20.625V21.875ZM19.5575 7.9425L23.3075 11.6925L24.1925 10.8075L20.4425 7.0575L19.5575 7.9425ZM23.3075 10.8075L19.5575 14.5575L20.4425 15.4425L24.1925 11.6925L23.3075 10.8075ZM23.75 10.625H10V11.875H23.75V10.625ZM4.375 16.25C4.375 17.7418 4.96763 19.1726 6.02252 20.2275C7.07742 21.2824 8.50816 21.875 10 21.875V20.625C8.83968 20.625 7.72688 20.1641 6.90641 19.3436C6.08594 18.5231 5.625 17.4103 5.625 16.25H4.375ZM10 10.625C8.50816 10.625 7.07742 11.2176 6.02252 12.2725C4.96763 13.3274 4.375 14.7582 4.375 16.25H5.625C5.625 15.0897 6.08594 13.9769 6.90641 13.1564C7.72688 12.3359 8.83968 11.875 10 11.875V10.625ZM23.75 20.625H10V21.875H23.75V20.625Z" fill="currentColor"/>
</svg>
