<svg width="30" height="30" viewBox="0 0 30 30" fill="none" xmlns="http://www.w3.org/2000/svg">
<path d="M27.5185 14.5185H15.4815V2.48152C15.4815 2.35383 15.4308 2.23135 15.3405 2.14106C15.2502 2.05076 15.1277 2 15 2C14.8723 2 14.7498 2.05076 14.6595 2.14106C14.5692 2.23135 14.5185 2.35383 14.5185 2.48152V14.5185H2.48148C2.35378 14.5185 2.23132 14.5692 2.14102 14.6595C2.05073 14.7498 2 14.8723 2 15C2 15.1277 2.05073 15.2502 2.14102 15.3405C2.23132 15.4308 2.35378 15.4815 2.48148 15.4815H14.5185V27.5185C14.5185 27.6462 14.5692 27.7686 14.6595 27.8589C14.7498 27.9492 14.8723 28 15 28C15.1277 28 15.2502 27.9492 15.3405 27.8589C15.4308 27.7686 15.4815 27.6462 15.4815 27.5185V15.4815H27.5185C27.6462 15.4815 27.7687 15.4308 27.859 15.3405C27.9493 15.2502 28 15.1277 28 15C28 14.8723 27.9493 14.7498 27.859 14.6595C27.7687 14.5692 27.6462 14.5185 27.5185 14.5185Z" fill="currentColor"/>
</svg>
