<svg width="30" height="30" viewBox="0 0 30 30" fill="none" xmlns="http://www.w3.org/2000/svg">
<path d="M27.788 4.33775C27.7932 4.30269 27.7932 4.26706 27.788 4.232C27.7651 4.17317 27.7288 4.12051 27.6819 4.07819L27.6145 4.01088C27.5413 3.99637 27.466 3.99637 27.3928 4.01088H11.9723C11.884 4.009 11.7971 4.03237 11.7217 4.07819L2.08388 9.84709C2.0517 9.88083 2.02561 9.91986 2.00677 9.96246C1.99774 10.0198 1.99774 10.0782 2.00677 10.1355V25.5193C2.00677 25.6468 2.05754 25.769 2.14791 25.8592C2.23829 25.9493 2.36086 26 2.48866 26H17.9092C17.9864 25.9968 18.062 25.9771 18.1309 25.9423L27.7687 20.1734C27.8397 20.1303 27.8984 20.0695 27.9389 19.9971C27.9794 19.9246 28.0005 19.8429 28 19.76V4.37625L27.788 4.33775ZM12.0301 4.83774H25.5231L17.4948 9.64516H4.0018L12.0301 4.83774ZM2.72961 10.6066H17.1863V25.0289H2.72961V10.6066ZM26.8242 19.4715L18.1501 24.6635V10.3951L26.8242 5.20311V19.4715Z" fill="currentColor"/>
</svg>
