<svg width="30" height="30" viewBox="0 0 30 30" fill="none" xmlns="http://www.w3.org/2000/svg">
<path d="M15 27.9973C12.9379 28.0512 10.9384 27.2861 9.43906 25.8695C7.93976 24.453 7.06277 22.5004 7 20.4389V9.56111C7.06277 7.49965 7.93976 5.54701 9.43906 4.13046C10.9384 2.71391 12.9379 1.94882 15 2.00266C17.0621 1.94882 19.0616 2.71391 20.5609 4.13046C22.0602 5.54701 22.9372 7.49965 23 9.56111V20.4389C22.9372 22.5004 22.0602 24.453 20.5609 25.8695C19.0616 27.2861 17.0621 28.0512 15 27.9973ZM15 3.00246C14.1069 2.97581 13.2173 3.12541 12.3821 3.44267C11.5469 3.75993 10.7824 4.23863 10.1323 4.85144C9.48217 5.46426 8.95925 6.19917 8.59338 7.01415C8.22752 7.82912 8.02588 8.70816 8 9.60108V20.4789C8.02588 21.3718 8.22752 22.2509 8.59338 23.0659C8.95925 23.8808 9.48217 24.6157 10.1323 25.2286C10.7824 25.8414 11.5469 26.3201 12.3821 26.6373C13.2173 26.9546 14.1069 27.1042 15 27.0775C15.8931 27.1042 16.7827 26.9546 17.6179 26.6373C18.4531 26.3201 19.2176 25.8414 19.8677 25.2286C20.5178 24.6157 21.0408 23.8808 21.4066 23.0659C21.7725 22.2509 21.9741 21.3718 22 20.4789V9.60108C21.9793 8.70474 21.7815 7.82135 21.4179 7.00176C21.0543 6.18217 20.5322 5.4426 19.8816 4.82557C19.231 4.20854 18.4647 3.7263 17.6269 3.40655C16.7891 3.0868 15.8964 2.93588 15 2.96249V3.00246Z" fill="currentColor"/>
</svg>
