<svg width="30" height="30" viewBox="0 0 30 30" fill="none" xmlns="http://www.w3.org/2000/svg">
<path d="M25.94 22.0069C25.8999 21.6608 25.8054 21.3231 25.6601 21.0064C24.0306 16.274 16.343 3.77757 15.3833 2.20677C15.3359 2.14263 15.2741 2.09051 15.2029 2.05459C15.1317 2.01868 15.0531 2 14.9734 2C14.8937 2 14.8151 2.01868 14.7439 2.05459C14.6727 2.09051 14.611 2.14263 14.5635 2.20677C13.5639 3.77757 5.91622 16.274 4.28673 21.0064C4.14141 21.3231 4.04694 21.6608 4.00682 22.0069C3.99773 22.1168 3.99773 22.2272 4.00682 22.3371C4.00682 25.5087 8.83532 28 15.0034 28C21.1715 28 26 25.5087 26 22.3371C25.9893 22.2255 25.9692 22.1151 25.94 22.0069ZM14.9434 3.3674C17.9425 8.21988 21.7513 14.7932 23.7007 18.8753C21.0496 17.3245 18.0121 16.5611 14.9434 16.6742C11.8747 16.5611 8.83728 17.3245 6.18613 18.8753C8.16552 14.7932 11.9943 8.21988 14.9734 3.3674H14.9434ZM14.9434 27.0295C9.50511 27.0295 4.94653 24.8784 4.94653 22.3371C4.96737 21.9951 5.03809 21.658 5.15645 21.3366C6.15614 19.2255 10.2349 17.5846 14.9834 17.5846C19.732 17.5846 23.8407 19.2255 24.8104 21.3366C24.9287 21.658 24.9995 21.9951 25.0203 22.3371C25.0103 24.8784 20.4117 27.0295 14.9734 27.0295H14.9434Z" fill="currentColor"/>
</svg>
