<svg width="30" height="30" viewBox="0 0 30 30" fill="none" xmlns="http://www.w3.org/2000/svg">
<path d="M15.2031 2C10.6035 2 7 4.16211 7 6.92188V22.8594C7 25.6191 10.6035 27.7812 15.2031 27.7812C19.8027 27.7812 23.4062 25.6191 23.4062 22.8594V6.92188C23.4062 4.16211 19.8027 2 15.2031 2ZM15.2031 3C18.8875 3 22.5 5.01641 22.5 6.92188C22.5 8.82734 18.8875 11 15.2031 11C11.5187 11 8 8.82734 8 6.92188C8 5.01641 11.5187 3 15.2031 3ZM15.2031 27C11.5187 27 8 24.7648 8 22.8594V9C9.4625 10.2961 12.3426 11.8438 15.2031 11.8438C18.0637 11.8438 21.0375 10.2961 22.5 9V23C22.5 24.9055 18.8875 27 15.2031 27Z" fill="currentColor"/>
</svg>
