<svg width="30" height="30" viewBox="0 0 30 30" fill="none" xmlns="http://www.w3.org/2000/svg">
<path d="M26 8.58071C26 8.58071 26 8.5807 26 8.51067C25.9616 8.43219 25.8979 8.36879 25.819 8.33059L15.2443 2.0676C15.1717 2.02339 15.0882 2 15.0031 2C14.9179 2 14.8344 2.02339 14.7618 2.0676L4.17697 8.33059C4.10312 8.37217 4.04359 8.43492 4.0061 8.51067C4.0061 8.51067 4.0061 8.51068 4.0061 8.58071C3.99797 8.63376 3.99797 8.68777 4.0061 8.74082V21.2667C4.0028 21.29 4.0028 21.3136 4.0061 21.3368C4.00037 21.3867 4.00037 21.437 4.0061 21.4869L4.06641 21.5569C4.09805 21.5985 4.13523 21.6355 4.17697 21.667L14.7417 27.94C14.8086 27.9794 14.885 28.0002 14.9628 28C15.0406 28.0002 15.117 27.9794 15.184 27.94L25.7989 21.677C25.8376 21.6453 25.8714 21.6082 25.8995 21.5669L25.9698 21.4969C25.9801 21.4474 25.9801 21.3963 25.9698 21.3468C25.9698 21.3468 25.9698 21.3468 25.9698 21.2768V8.75078C25.9892 8.6961 25.9994 8.63866 26 8.58071ZM14.9427 21.0066L10.5299 12.0824H19.3556L14.9427 21.0066ZM10.7209 11.1219L15.0332 3.45828L19.3455 11.1219H10.7209ZM14.2491 21.5969L5.2023 20.8466L9.79607 12.6827L14.2491 21.5969ZM20.2201 12.6827L24.8239 20.8466L15.7771 21.5969L20.2201 12.6827ZM20.3708 10.9819L16.35 3.80842L24.643 8.72079L20.3708 10.9819ZM9.69557 10.9819L5.44354 8.72079L13.7365 3.80842L9.69557 10.9819ZM4.89069 19.4059V9.51115L9.17284 11.7923L4.89069 19.4059ZM14.5005 22.5474V26.6493L6.45881 21.887L14.5005 22.5474ZM15.5057 22.5474L23.5473 21.877L15.5057 26.6393V22.5474ZM20.8332 11.7822L25.1154 9.50113V19.4059L20.8332 11.7822Z" fill="currentColor"/>
</svg>
