<svg width="30" height="30" viewBox="0 0 30 30" fill="none" xmlns="http://www.w3.org/2000/svg">
<path d="M27.9925 15.1152C27.997 15.0887 27.997 15.0616 27.9925 15.035C28.0025 14.9888 28.0025 14.9409 27.9925 14.8947L21.7617 4.54127C21.7771 4.47534 21.7771 4.40673 21.7617 4.3408C21.7316 4.24205 21.6706 4.15557 21.5876 4.09421C21.5046 4.03284 21.4041 3.99981 21.3009 4H8.69909C8.59591 3.99981 8.49541 4.03284 8.41243 4.09421C8.32945 4.15557 8.2684 4.24205 8.2383 4.3408C8.22292 4.40673 8.22292 4.47534 8.2383 4.54127L2.00752 14.8947C1.99749 14.9409 1.99749 14.9888 2.00752 15.035C2.00304 15.0616 2.00304 15.0887 2.00752 15.1152C1.9972 15.2128 2.01826 15.3111 2.06762 15.3958L8.33848 25.8195C8.36775 25.8691 8.4091 25.9105 8.45869 25.9398C8.52116 25.9806 8.59447 26.0015 8.66904 25.9999H21.2208C21.2953 26.0015 21.3687 25.9806 21.4311 25.9398H21.4912C21.5353 25.9071 21.5727 25.8663 21.6014 25.8195L27.8723 15.3958C27.943 15.3187 27.9854 15.2197 27.9925 15.1152ZM14.9699 7.91892L10.7126 5.20274H19.2173L14.9699 7.91892ZM14.2988 8.6305L8.52881 17.6811L3.10944 14.9148L8.96958 5.1727L14.2988 8.6305ZM8.20825 23.835L3.70045 16.338L8.20825 18.6433V23.835ZM14.9699 9.38221L20.3593 17.8715H9.59065L14.9699 9.38221ZM21.7216 18.6433L26.2294 16.338L21.7216 23.835V18.6433ZM21.4111 17.7211L15.601 8.6606L20.9503 5.24287L26.8004 14.9849L21.4111 17.7211ZM9.17993 25.0879V18.8337H20.76V25.0879H9.17993Z" fill="currentColor"/>
</svg>
