<svg width="30" height="30" viewBox="0 0 30 30" fill="none" xmlns="http://www.w3.org/2000/svg">
<path d="M25.11 28H4.89001C4.12435 27.9974 3.39078 27.692 2.84937 27.1506C2.30796 26.6092 2.00264 25.8757 2 25.11V4.89001C2.00264 4.12435 2.30796 3.39078 2.84937 2.84937C3.39078 2.30796 4.12435 2.00264 4.89001 2H25.11C25.8757 2.00264 26.6092 2.30796 27.1506 2.84937C27.692 3.39078 27.9974 4.12435 28 4.89001V25.11C27.9974 25.8757 27.692 26.6092 27.1506 27.1506C26.6092 27.692 25.8757 27.9974 25.11 28ZM4.89001 3C4.37896 3.00263 3.88958 3.2068 3.5282 3.56818C3.16682 3.92955 2.96262 4.41893 2.95999 4.92999V25.15C2.96262 25.6611 3.16682 26.1505 3.5282 26.5118C3.88958 26.8732 4.37896 27.0774 4.89001 27.08H25.11C25.621 27.0774 26.1104 26.8732 26.4718 26.5118C26.8332 26.1505 27.0374 25.6611 27.04 25.15V4.92999C27.0374 4.41893 26.8332 3.92955 26.4718 3.56818C26.1104 3.2068 25.621 3.00263 25.11 3H4.89001Z" fill="currentColor"/>
</svg>
