<svg width="30" height="30" viewBox="0 0 30 30" fill="none" xmlns="http://www.w3.org/2000/svg">
<path d="M26.5562 3H3.4438C3.32526 3.00242 3.21241 3.0511 3.12944 3.13567C3.04648 3.22023 2.99998 3.33392 3 3.4523V6.10152C3 6.15971 3.0115 6.21735 3.0338 6.27111C3.0561 6.32487 3.0888 6.37369 3.13001 6.41483C3.17121 6.45598 3.22011 6.48863 3.27395 6.51089C3.32779 6.53316 3.38552 6.54458 3.4438 6.54458C3.50284 6.54581 3.56155 6.53526 3.61646 6.51354C3.67137 6.49182 3.72137 6.45942 3.76357 6.41816C3.80576 6.37689 3.83927 6.32762 3.86214 6.27325C3.88502 6.21888 3.8968 6.1605 3.89679 6.10152V3.89536H14.5747V26.1138H10.0632C9.94546 26.1138 9.83258 26.1605 9.74936 26.2436C9.66614 26.3267 9.61941 26.4394 9.61941 26.5569C9.61815 26.6154 9.62876 26.6736 9.65062 26.7279C9.67247 26.7823 9.70514 26.8316 9.7466 26.873C9.78806 26.9144 9.83743 26.947 9.89184 26.9688C9.94625 26.9907 10.0045 27.0013 10.0632 27H19.909C19.9677 27.0013 20.0259 26.9907 20.0804 26.9688C20.1348 26.947 20.1841 26.9144 20.2256 26.873C20.2671 26.8316 20.2997 26.7823 20.3216 26.7279C20.3434 26.6736 20.354 26.6154 20.3528 26.5569C20.3528 26.4394 20.3061 26.3267 20.2228 26.2436C20.1396 26.1605 20.0267 26.1138 19.909 26.1138H15.4252V3.89536H26.1124V6.10152C26.1124 6.15971 26.1239 6.21735 26.1462 6.27111C26.1685 6.32487 26.2012 6.37369 26.2424 6.41483C26.2836 6.45598 26.3325 6.48863 26.3863 6.51089C26.4402 6.53316 26.4979 6.54458 26.5562 6.54458C26.6148 6.54584 26.6731 6.53525 26.7275 6.51343C26.7819 6.49161 26.8313 6.45905 26.8727 6.41765C26.9142 6.37625 26.9468 6.3269 26.9687 6.27257C26.9905 6.21825 27.0012 6.16006 26.9999 6.10152V3.4523C27.0011 3.39334 26.9906 3.33472 26.9688 3.2799C26.9471 3.22507 26.9146 3.17515 26.8732 3.13302C26.8319 3.09089 26.7826 3.05743 26.7281 3.03459C26.6737 3.01175 26.6152 2.99999 26.5562 3Z" fill="currentColor"/>
</svg>
