<svg width="30" height="30" viewBox="0 0 30 30" fill="none" xmlns="http://www.w3.org/2000/svg">
<path d="M15 7C7.83 7 2 10.59 2 15C2 19.41 7.83 23 15 23C22.17 23 28 19.41 28 15C28 10.59 22.17 7 15 7ZM15 22.06C8.36 22.06 3 18.89 3 15C3 11.11 8.4 7.94 15 7.94C21.6 7.94 27 11.11 27 15C27 18.89 21.64 22.06 15 22.06Z" fill="currentColor"/>
<path d="M22.5901 13.02C22.5276 13.0187 22.4654 13.0299 22.4072 13.0529C22.349 13.0759 22.2961 13.1103 22.2513 13.1541C22.2066 13.1979 22.1711 13.2501 22.1469 13.3078C22.1226 13.3655 22.1101 13.4274 22.1101 13.49C22.1101 14.09 21.3902 14.71 20.1702 15.19C19.2802 13.9 17.0901 13.02 14.6201 13.02C12.1501 13.02 10.2502 13.75 9.25015 14.94C8.37015 14.5 7.87015 13.94 7.87015 13.49C7.87016 13.4274 7.85768 13.3655 7.83344 13.3078C7.80919 13.2501 7.77368 13.1979 7.72897 13.1541C7.68427 13.1103 7.63127 13.0759 7.57309 13.0529C7.51491 13.0299 7.45272 13.0187 7.39017 13.02C7.26458 13.02 7.14397 13.0692 7.05423 13.1571C6.96449 13.2449 6.91277 13.3645 6.91016 13.49C6.91016 14.49 7.73014 15.3201 9.21014 15.9601C11.0483 16.672 13.0096 17.0119 14.9802 16.9601C16.7131 16.9808 18.4382 16.7242 20.0901 16.2C22.0001 15.54 23.0901 14.58 23.0901 13.47C23.0824 13.3444 23.0257 13.227 22.9322 13.1428C22.8386 13.0586 22.7158 13.0146 22.5901 13.02ZM10.2502 15.33C11.5107 14.3714 13.0682 13.8864 14.6501 13.9601C16.3161 13.8568 17.9564 14.4095 19.2202 15.5C17.8536 15.8651 16.4446 16.0467 15.0302 16.04C13.4093 16.0577 11.7959 15.8181 10.2502 15.33Z" fill="currentColor"/>
</svg>
